<svg xmlns="http://www.w3.org/2000/svg" width="175.742" height="60" viewBox="0 0 175.742 60">
  <g id="Grupo_6230" data-name="Grupo 6230" transform="translate(-1155.969 -53.452)">
    <g id="Grupo_6206" data-name="Grupo 6206" transform="translate(18524 -6434.53)">
      <g id="Grupo_6203" data-name="Grupo 6203" transform="translate(-17293.703 6490.601)">
        <path id="Trazado_8872" data-name="Trazado 8872" d="M17.2-41.773v-.365a.839.839,0,0,1,.156-.574.51.51,0,0,1,.391-.17.525.525,0,0,1,.4.17.839.839,0,0,1,.156.574v2.478a.911.911,0,0,1-.163.574.5.5,0,0,1-.4.17.5.5,0,0,1-.372-.15.779.779,0,0,1-.176-.5,2.558,2.558,0,0,0-1.219-1.76,5.094,5.094,0,0,0-3.071-.835,4.535,4.535,0,0,0-3.7,1.526,5.321,5.321,0,0,0-1.265,3.495,4.73,4.73,0,0,0,1.4,3.508,4.913,4.913,0,0,0,3.612,1.382,7.751,7.751,0,0,0,2.6-.469,6.53,6.53,0,0,0,2.393-1.513.763.763,0,0,1,.483-.261.5.5,0,0,1,.372.15.5.5,0,0,1,.15.372q0,.561-1.317,1.421a8.441,8.441,0,0,1-4.734,1.4,5.914,5.914,0,0,1-4.349-1.689,5.781,5.781,0,0,1-1.7-4.284,5.971,5.971,0,0,1,1.741-4.395,5.937,5.937,0,0,1,4.388-1.747A6.175,6.175,0,0,1,17.2-41.773Zm16.288,4.8H22.326a5.3,5.3,0,0,0,1.78,3.423,5.436,5.436,0,0,0,3.7,1.3,8.91,8.91,0,0,0,2.569-.4,6.6,6.6,0,0,0,2.191-1.069.743.743,0,0,1,.43-.2.491.491,0,0,1,.365.163.537.537,0,0,1,.156.385.612.612,0,0,1-.209.43,5.857,5.857,0,0,1-2.223,1.219,9.731,9.731,0,0,1-3.28.567A6.451,6.451,0,0,1,23.1-33a6.021,6.021,0,0,1-1.884-4.466,5.5,5.5,0,0,1,1.767-4.095,6.049,6.049,0,0,1,4.375-1.708,5.952,5.952,0,0,1,4.421,1.754A6.1,6.1,0,0,1,33.489-36.974Zm-1.108-1.108a4.772,4.772,0,0,0-1.715-2.947,5.062,5.062,0,0,0-3.306-1.135,5.073,5.073,0,0,0-3.3,1.121,4.8,4.8,0,0,0-1.721,2.96Zm6.573-4.8v1.656a7.907,7.907,0,0,1,2.073-1.6,4.771,4.771,0,0,1,2.086-.443,4.879,4.879,0,0,1,2.282.535,3.745,3.745,0,0,1,1.324,1.3,3.354,3.354,0,0,1,.593,1.858v6.9h.926a.841.841,0,0,1,.561.15.505.505,0,0,1,.17.4.51.51,0,0,1-.17.391.816.816,0,0,1-.561.156H45.3a.839.839,0,0,1-.574-.156.51.51,0,0,1-.17-.391.505.505,0,0,1,.17-.4.865.865,0,0,1,.574-.15h.913V-39.4a2.6,2.6,0,0,0-.848-1.963,3.166,3.166,0,0,0-2.269-.8,3.842,3.842,0,0,0-1.878.437,10.074,10.074,0,0,0-2.269,2.171v6.872h1.239a.841.841,0,0,1,.561.15.505.505,0,0,1,.17.4.51.51,0,0,1-.17.391.816.816,0,0,1-.561.156H36.619a.816.816,0,0,1-.561-.156.51.51,0,0,1-.17-.391.505.505,0,0,1,.17-.4.841.841,0,0,1,.561-.15h1.239v-9.089h-.926a.816.816,0,0,1-.561-.156.525.525,0,0,1-.17-.4.51.51,0,0,1,.17-.391.816.816,0,0,1,.561-.156Zm16.223,0h5.947a.816.816,0,0,1,.561.156.525.525,0,0,1,.17.4.51.51,0,0,1-.17.391.816.816,0,0,1-.561.156H55.176v7.29a1.993,1.993,0,0,0,.763,1.591,3.4,3.4,0,0,0,2.236.639,9.658,9.658,0,0,0,2.4-.333,8.124,8.124,0,0,0,2.008-.75.855.855,0,0,1,.43-.17.491.491,0,0,1,.365.163.537.537,0,0,1,.156.385.511.511,0,0,1-.17.365,5.451,5.451,0,0,1-2.028.932,10.356,10.356,0,0,1-3.084.5,4.776,4.776,0,0,1-3.051-.9,2.934,2.934,0,0,1-1.135-2.426v-7.29H52.047a.816.816,0,0,1-.561-.156.525.525,0,0,1-.17-.4.51.51,0,0,1,.17-.391.816.816,0,0,1,.561-.156h2.021v-3.234a.816.816,0,0,1,.156-.561.51.51,0,0,1,.391-.17.525.525,0,0,1,.4.17.816.816,0,0,1,.156.561Zm15.871,0v2.765a18.43,18.43,0,0,1,3.2-2.484,4.29,4.29,0,0,1,1.963-.554,2.892,2.892,0,0,1,1.819.659q.841.659.841,1a.557.557,0,0,1-.163.411.557.557,0,0,1-.411.163.492.492,0,0,1-.222-.046,1.845,1.845,0,0,1-.339-.293,3.311,3.311,0,0,0-.8-.626,1.48,1.48,0,0,0-.665-.17,3.666,3.666,0,0,0-1.728.574,25.786,25.786,0,0,0-3.5,2.8v6H75.9a.865.865,0,0,1,.574.15.505.505,0,0,1,.17.4.51.51,0,0,1-.17.391.839.839,0,0,1-.574.156H67.3a.841.841,0,0,1-.561-.15.49.49,0,0,1-.17-.385.485.485,0,0,1,.163-.372.837.837,0,0,1,.567-.15h2.647v-9.128H67.93a.816.816,0,0,1-.561-.156.525.525,0,0,1-.17-.4.52.52,0,0,1,.163-.391.812.812,0,0,1,.567-.156Zm22.365,5.673a5.8,5.8,0,0,1-1.793,4.277A5.924,5.924,0,0,1,87.3-31.158a5.922,5.922,0,0,1-4.343-1.78,5.814,5.814,0,0,1-1.787-4.271,5.829,5.829,0,0,1,1.787-4.284,5.922,5.922,0,0,1,4.343-1.78A5.924,5.924,0,0,1,91.619-41.5,5.813,5.813,0,0,1,93.412-37.209Zm-1.108,0a4.745,4.745,0,0,0-1.467-3.508,4.873,4.873,0,0,0-3.554-1.448A4.862,4.862,0,0,0,83.73-40.71a4.752,4.752,0,0,0-1.467,3.5,4.758,4.758,0,0,0,1.467,3.495,4.851,4.851,0,0,0,3.554,1.461,4.862,4.862,0,0,0,3.554-1.454A4.752,4.752,0,0,0,92.3-37.209Zm13.537-4.955a.793.793,0,0,1,.156-.548.51.51,0,0,1,.391-.17.525.525,0,0,1,.4.17.839.839,0,0,1,.156.574v1.878a.816.816,0,0,1-.156.561.525.525,0,0,1-.4.17.517.517,0,0,1-.372-.143.71.71,0,0,1-.176-.469,1.747,1.747,0,0,0-.809-1.291,4.932,4.932,0,0,0-2.83-.73,4.769,4.769,0,0,0-2.856.743,1.569,1.569,0,0,0-.769,1.252,1.513,1.513,0,0,0,.913,1.3,6.763,6.763,0,0,0,2.373.561,16.135,16.135,0,0,1,3.169.561,4.01,4.01,0,0,1,1.884,1.265,2.816,2.816,0,0,1,.619,1.747,3.159,3.159,0,0,1-1.343,2.484,6.137,6.137,0,0,1-3.938,1.089A6.62,6.62,0,0,1,98-32.475a1.932,1.932,0,0,1-.052.574.483.483,0,0,1-.189.222.54.54,0,0,1-.306.091.51.51,0,0,1-.391-.17.816.816,0,0,1-.156-.561v-2.256a.841.841,0,0,1,.15-.561.505.505,0,0,1,.4-.17.541.541,0,0,1,.4.163.59.59,0,0,1,.163.437,1.639,1.639,0,0,0,.3,1,3.3,3.3,0,0,0,1.454,1.037,6.432,6.432,0,0,0,2.445.411,5.228,5.228,0,0,0,3.182-.8,2.186,2.186,0,0,0,1.043-1.682,1.838,1.838,0,0,0-1.056-1.63,8.043,8.043,0,0,0-3.11-.822,12.623,12.623,0,0,1-2.928-.548,2.977,2.977,0,0,1-1.382-1.017,2.428,2.428,0,0,1-.5-1.461,2.515,2.515,0,0,1,1.382-2.236,6.3,6.3,0,0,1,3.3-.828A5.828,5.828,0,0,1,105.84-42.164Z" transform="translate(-6.847 81.087)" stroke="#000" stroke-width="1"/>
        <g id="Moodle-logo" transform="translate(0.025 -1)">
          <path id="Trazado_8870" data-name="Trazado 8870" d="M87.015,27V17.565q0-2.958-2.441-2.959t-2.446,2.959V27H77.322V17.565q0-2.958-2.4-2.959-2.445,0-2.441,2.959V27H67.67V17.008a5.448,5.448,0,0,1,2.144-4.675,8.316,8.316,0,0,1,5.1-1.416,6.242,6.242,0,0,1,4.8,1.673q1.33-1.673,4.848-1.673a8.308,8.308,0,0,1,5.1,1.416,5.449,5.449,0,0,1,2.145,4.675V27Zm58.878-.044V0H150.7V26.957Zm-6.128,0V25.369a4.39,4.39,0,0,1-2.189,1.374,8.089,8.089,0,0,1-2.619.472,6.992,6.992,0,0,1-5.516-2.361,8.517,8.517,0,0,1-2.082-5.84,8.377,8.377,0,0,1,2.04-5.753,7.257,7.257,0,0,1,5.429-2.318A5.972,5.972,0,0,1,139.766,13V0h4.679V26.957Zm0-8.971a3.446,3.446,0,0,0-1.22-2.469,3.621,3.621,0,0,0-2.51-1.181,3.4,3.4,0,0,0-2.918,1.5,5.491,5.491,0,0,0-.945,3.263,5.415,5.415,0,0,0,.945,3.22,3.366,3.366,0,0,0,2.918,1.545,4,4,0,0,0,2.426-1.052,2.88,2.88,0,0,0,1.307-2.167Zm-21.462,9.4a8.293,8.293,0,0,1-6.031-2.318,7.979,7.979,0,0,1-2.387-5.967,7.963,7.963,0,0,1,2.383-5.966,8.283,8.283,0,0,1,6.031-2.318,8.372,8.372,0,0,1,6.053,2.318,7.918,7.918,0,0,1,2.4,5.966,7.921,7.921,0,0,1-2.4,5.967A8.37,8.37,0,0,1,118.3,27.386Zm0-12.706A3.077,3.077,0,0,0,115.632,16a5.265,5.265,0,0,0-.934,3.127,5.223,5.223,0,0,0,.872,3.062,3.343,3.343,0,0,0,5.473,0,5.055,5.055,0,0,0,.912-3.062,5.221,5.221,0,0,0-.872-3.062,3.234,3.234,0,0,0-2.78-1.382ZM100.919,27.386a8.3,8.3,0,0,1-6.032-2.318A7.956,7.956,0,0,1,92.506,19.1a7.965,7.965,0,0,1,2.382-5.966,8.282,8.282,0,0,1,6.032-2.318,8.376,8.376,0,0,1,6.053,2.318,7.907,7.907,0,0,1,2.4,5.966,7.923,7.923,0,0,1-2.4,5.967A8.373,8.373,0,0,1,100.919,27.386Zm0-12.706A3.08,3.08,0,0,0,98.247,16a5.257,5.257,0,0,0-.934,3.127,5.223,5.223,0,0,0,.872,3.062,3.344,3.344,0,0,0,5.474,0,5.062,5.062,0,0,0,.91-3.062,5.221,5.221,0,0,0-.872-3.062,3.23,3.23,0,0,0-2.778-1.382Zm55.475,5.881a4.438,4.438,0,0,0,4.037,3.606c2.38,0,3.507-1.375,3.562-1.932l5.065-.044c-.553,1.69-2.8,5.28-8.716,5.28a9.074,9.074,0,0,1-6.332-2.3,7.864,7.864,0,0,1-2.425-5.988,7.89,7.89,0,0,1,2.425-6.074,8.872,8.872,0,0,1,6.29-2.253,8.139,8.139,0,0,1,6.567,2.789,10.3,10.3,0,0,1,2.19,6.91Zm7.856-2.964a4.78,4.78,0,0,0-1.287-2.533,3.615,3.615,0,0,0-2.576-1.073,3.372,3.372,0,0,0-2.512,1.03,5.2,5.2,0,0,0-1.351,2.576Z" transform="translate(-67.67)"/>
        </g>
      </g>
    </g>
    <path id="Trazado_8883" data-name="Trazado 8883" d="M14.81,0H45.19A14.707,14.707,0,0,1,60,14.6V45.4A14.707,14.707,0,0,1,45.19,60H14.81A14.707,14.707,0,0,1,0,45.4V14.6A14.707,14.707,0,0,1,14.81,0Z" transform="translate(1155.969 113.452) rotate(-90)" fill="#007d3a"/>
    <g id="Grupo_6207" data-name="Grupo 6207" transform="translate(1143.938 49.109)">
      <g id="Grupo_6205" data-name="Grupo 6205" transform="translate(17 14.835)">
        <path id="Trazado_8882" data-name="Trazado 8882" d="M22.208,27.162l1.557.846a2.817,2.817,0,0,0,.63.252,2.585,2.585,0,0,0,1.272,0,2.817,2.817,0,0,0,.63-.252l20.55-11.171a1.812,1.812,0,0,0,.385-.28,1.627,1.627,0,0,0,.277-.347,1.651,1.651,0,0,0,.175-.413,1.86,1.86,0,0,0,0-.937,1.653,1.653,0,0,0-.175-.413,1.628,1.628,0,0,0-.277-.347,1.81,1.81,0,0,0-.385-.28L26.3,2.65a2.816,2.816,0,0,0-.63-.252,2.585,2.585,0,0,0-1.272,0,2.816,2.816,0,0,0-.63.252L3.215,13.821a1.81,1.81,0,0,0-.385.28,1.627,1.627,0,0,0-.277.347,1.653,1.653,0,0,0-.175.413,1.86,1.86,0,0,0,0,.937,1.653,1.653,0,0,0,.175.413,1.627,1.627,0,0,0,.277.347,1.812,1.812,0,0,0,.385.28l13.246,7.2A2.918,2.918,0,0,0,19.41,24v0l14.524-8.385a.339.339,0,0,0,.127-.119h0a.428.428,0,0,0,0-.333h0a.329.329,0,0,0-.122-.119h0L22.276,8.315v0a.327.327,0,0,0-.331,0,.326.326,0,0,0-.123.115.345.345,0,0,0-.036.17V20.086L19.47,21.424V8.6a2.628,2.628,0,0,1,3.961-2.286h0l11.656,6.729v0a2.627,2.627,0,0,1,.97.96v0a2.647,2.647,0,0,1,0,2.64v0a2.622,2.622,0,0,1-.969.962L20.568,26h0a5.224,5.224,0,0,1-5.207.066L2.11,18.866a4.108,4.108,0,0,1-.874-.633A3.955,3.955,0,0,1,.141,16.4a4.089,4.089,0,0,1,0-2.132,3.955,3.955,0,0,1,1.095-1.838,4.108,4.108,0,0,1,.874-.633L22.66.621a5.152,5.152,0,0,1,1.156-.46,4.669,4.669,0,0,1,2.431,0A5.152,5.152,0,0,1,27.4.621l20.55,11.171a4.108,4.108,0,0,1,.874.633,3.956,3.956,0,0,1,1.095,1.838,4.089,4.089,0,0,1,0,2.132,3.956,3.956,0,0,1-1.095,1.838,4.108,4.108,0,0,1-.874.633l-6.894,3.747V30.38a2.517,2.517,0,0,1-1.333,2.236L27.4,39.315a5.152,5.152,0,0,1-1.156.46,4.669,4.669,0,0,1-2.431,0,5.152,5.152,0,0,1-1.156-.46l-12.323-6.7A2.517,2.517,0,0,1,9,30.38V24.9l2.318,1.213V30.38a.246.246,0,0,0,.028.125.235.235,0,0,0,.092.083l12.323,6.7a2.813,2.813,0,0,0,.63.252,2.583,2.583,0,0,0,1.272,0,2.813,2.813,0,0,0,.63-.252l12.323-6.7a.236.236,0,0,0,.092-.083.246.246,0,0,0,.028-.125V23.873L27.4,30.037a5.156,5.156,0,0,1-1.156.46,4.669,4.669,0,0,1-2.431,0,5.155,5.155,0,0,1-1.156-.46l-2.8-1.521Z" transform="translate(0 0)" fill="#fff" stroke="#fff" stroke-width="1"/>
      </g>
    </g>
  </g>
</svg>
